<mxfile host="app.diagrams.net" modified="2024-02-05T06:28:32.436Z" agent="Mozilla/5.0 (Windows NT 10.0; Win64; x64) AppleWebKit/537.36 (KHTML, like Gecko) Chrome/120.0.0.0 Safari/537.36" etag="4g6WJM3YyQtLgvVu7JDo" version="23.1.1" type="github">
  <diagram id="Ju0PLXCWBzkNmTkT_-pV" name="Halaman-1">
    <mxGraphModel dx="2647" dy="2542" grid="1" gridSize="10" guides="1" tooltips="1" connect="1" arrows="1" fold="1" page="1" pageScale="1" pageWidth="827" pageHeight="1169" math="0" shadow="0">
      <root>
        <mxCell id="0" />
        <mxCell id="1" parent="0" />
        <mxCell id="Ds7gYtcJDSEKKV-xwVTr-1" style="edgeStyle=orthogonalEdgeStyle;rounded=0;orthogonalLoop=1;jettySize=auto;html=1;" parent="1" edge="1">
          <mxGeometry relative="1" as="geometry">
            <mxPoint x="413.62" y="-250" as="targetPoint" />
            <mxPoint x="414" y="-310" as="sourcePoint" />
          </mxGeometry>
        </mxCell>
        <mxCell id="_7FOiPCJI2abmGHj1Tfg-1" value="Mulai" style="ellipse;whiteSpace=wrap;html=1;" parent="1" vertex="1">
          <mxGeometry x="359.62" y="-358" width="106.38" height="47" as="geometry" />
        </mxCell>
        <mxCell id="_7FOiPCJI2abmGHj1Tfg-34" value="Input jadwal" style="shape=parallelogram;perimeter=parallelogramPerimeter;whiteSpace=wrap;html=1;fixedSize=1;" parent="1" vertex="1">
          <mxGeometry x="156" y="634" width="133" height="61" as="geometry" />
        </mxCell>
        <mxCell id="_7FOiPCJI2abmGHj1Tfg-36" value="" style="endArrow=none;html=1;rounded=0;" parent="1" edge="1">
          <mxGeometry width="50" height="50" relative="1" as="geometry">
            <mxPoint x="340" y="630" as="sourcePoint" />
            <mxPoint x="480.5" y="630" as="targetPoint" />
            <Array as="points" />
          </mxGeometry>
        </mxCell>
        <mxCell id="_7FOiPCJI2abmGHj1Tfg-47" value="Selesai" style="ellipse;whiteSpace=wrap;html=1;" parent="1" vertex="1">
          <mxGeometry x="352" y="949" width="98" height="41" as="geometry" />
        </mxCell>
        <mxCell id="_7FOiPCJI2abmGHj1Tfg-52" value="inpuut waktu" style="shape=parallelogram;perimeter=parallelogramPerimeter;whiteSpace=wrap;html=1;fixedSize=1;" parent="1" vertex="1">
          <mxGeometry x="2" y="635" width="133" height="61" as="geometry" />
        </mxCell>
        <mxCell id="_7FOiPCJI2abmGHj1Tfg-53" value="" style="endArrow=none;html=1;rounded=0;" parent="1" edge="1">
          <mxGeometry width="50" height="50" relative="1" as="geometry">
            <mxPoint x="70" y="610" as="sourcePoint" />
            <mxPoint x="230" y="610" as="targetPoint" />
            <Array as="points" />
          </mxGeometry>
        </mxCell>
        <mxCell id="NG-OHc6U-5O2aJ6f4-Iv-12" value="Input note" style="shape=parallelogram;perimeter=parallelogramPerimeter;whiteSpace=wrap;html=1;fixedSize=1;" parent="1" vertex="1">
          <mxGeometry x="295" y="654" width="100" height="40" as="geometry" />
        </mxCell>
        <mxCell id="NG-OHc6U-5O2aJ6f4-Iv-16" value="Clock" style="rounded=0;whiteSpace=wrap;html=1;" parent="1" vertex="1">
          <mxGeometry x="437" y="654" width="80" height="41" as="geometry" />
        </mxCell>
        <mxCell id="NG-OHc6U-5O2aJ6f4-Iv-21" value="" style="endArrow=none;html=1;rounded=0;" parent="1" edge="1">
          <mxGeometry width="50" height="50" relative="1" as="geometry">
            <mxPoint x="70" y="740" as="sourcePoint" />
            <mxPoint x="68" y="700" as="targetPoint" />
            <Array as="points" />
          </mxGeometry>
        </mxCell>
        <mxCell id="NG-OHc6U-5O2aJ6f4-Iv-24" value="Waktu" style="rounded=0;whiteSpace=wrap;html=1;" parent="1" vertex="1">
          <mxGeometry x="406" y="731" width="57" height="30" as="geometry" />
        </mxCell>
        <mxCell id="NG-OHc6U-5O2aJ6f4-Iv-25" value="Jadwal" style="rounded=0;whiteSpace=wrap;html=1;" parent="1" vertex="1">
          <mxGeometry x="485" y="730" width="57" height="30" as="geometry" />
        </mxCell>
        <mxCell id="NG-OHc6U-5O2aJ6f4-Iv-26" value="Jadwal" style="rounded=0;whiteSpace=wrap;html=1;" parent="1" vertex="1">
          <mxGeometry x="132" y="776" width="57" height="30" as="geometry" />
        </mxCell>
        <mxCell id="NG-OHc6U-5O2aJ6f4-Iv-33" value="" style="endArrow=none;html=1;rounded=0;" parent="1" edge="1">
          <mxGeometry width="50" height="50" relative="1" as="geometry">
            <mxPoint x="160" y="840" as="sourcePoint" />
            <mxPoint x="630" y="840" as="targetPoint" />
            <Array as="points" />
          </mxGeometry>
        </mxCell>
        <mxCell id="NG-OHc6U-5O2aJ6f4-Iv-35" value="Tabel statistik" style="rounded=0;whiteSpace=wrap;html=1;" parent="1" vertex="1">
          <mxGeometry x="568.5" y="634" width="120" height="60" as="geometry" />
        </mxCell>
        <mxCell id="NG-OHc6U-5O2aJ6f4-Iv-39" value="" style="endArrow=none;html=1;rounded=0;" parent="1" edge="1">
          <mxGeometry width="50" height="50" relative="1" as="geometry">
            <mxPoint x="230" y="740" as="sourcePoint" />
            <mxPoint x="230" y="700" as="targetPoint" />
            <Array as="points" />
          </mxGeometry>
        </mxCell>
        <mxCell id="NG-OHc6U-5O2aJ6f4-Iv-40" value="" style="endArrow=none;html=1;rounded=0;" parent="1" edge="1">
          <mxGeometry width="50" height="50" relative="1" as="geometry">
            <mxPoint x="70" y="740" as="sourcePoint" />
            <mxPoint x="230" y="740" as="targetPoint" />
            <Array as="points" />
          </mxGeometry>
        </mxCell>
        <mxCell id="NG-OHc6U-5O2aJ6f4-Iv-44" value="Note" style="rounded=0;whiteSpace=wrap;html=1;" parent="1" vertex="1">
          <mxGeometry x="300" y="730" width="70" height="30" as="geometry" />
        </mxCell>
        <mxCell id="Ds7gYtcJDSEKKV-xwVTr-2" value="login" style="shape=parallelogram;perimeter=parallelogramPerimeter;whiteSpace=wrap;html=1;fixedSize=1;" parent="1" vertex="1">
          <mxGeometry x="353.62" y="-250" width="120" height="60" as="geometry" />
        </mxCell>
        <mxCell id="Ds7gYtcJDSEKKV-xwVTr-4" value="regristrasi" style="shape=parallelogram;perimeter=parallelogramPerimeter;whiteSpace=wrap;html=1;fixedSize=1;" parent="1" vertex="1">
          <mxGeometry x="550" y="-128" width="120" height="60" as="geometry" />
        </mxCell>
        <mxCell id="Ds7gYtcJDSEKKV-xwVTr-9" style="edgeStyle=orthogonalEdgeStyle;rounded=0;orthogonalLoop=1;jettySize=auto;html=1;" parent="1" source="Ds7gYtcJDSEKKV-xwVTr-8" target="Ds7gYtcJDSEKKV-xwVTr-4" edge="1">
          <mxGeometry relative="1" as="geometry">
            <mxPoint x="530" y="315" as="targetPoint" />
          </mxGeometry>
        </mxCell>
        <mxCell id="Ds7gYtcJDSEKKV-xwVTr-21" style="edgeStyle=orthogonalEdgeStyle;rounded=0;orthogonalLoop=1;jettySize=auto;html=1;" parent="1" edge="1">
          <mxGeometry relative="1" as="geometry">
            <mxPoint x="415" y="59" as="targetPoint" />
            <mxPoint x="415" y="-60" as="sourcePoint" />
          </mxGeometry>
        </mxCell>
        <mxCell id="Ds7gYtcJDSEKKV-xwVTr-8" value="&lt;font style=&quot;font-size: 11px;&quot;&gt;sudah punya akun/ belum&lt;/font&gt;" style="rhombus;whiteSpace=wrap;html=1;" parent="1" vertex="1">
          <mxGeometry x="353" y="-136" width="124" height="76" as="geometry" />
        </mxCell>
        <mxCell id="Ds7gYtcJDSEKKV-xwVTr-24" style="rounded=0;orthogonalLoop=1;jettySize=auto;html=1;exitX=0.079;exitY=0.447;exitDx=0;exitDy=0;exitPerimeter=0;" parent="1" source="Ds7gYtcJDSEKKV-xwVTr-6" edge="1">
          <mxGeometry relative="1" as="geometry">
            <mxPoint x="420" as="targetPoint" />
          </mxGeometry>
        </mxCell>
        <mxCell id="Ds7gYtcJDSEKKV-xwVTr-6" value="&lt;font style=&quot;font-size: 11px;&quot;&gt;Input username,&lt;br style=&quot;border-color: var(--border-color); background-color: rgb(255, 255, 255);&quot;&gt;&lt;span style=&quot;background-color: rgb(255, 255, 255);&quot;&gt;&amp;nbsp;email, password&lt;/span&gt;&lt;br style=&quot;border-color: var(--border-color); background-color: rgb(255, 255, 255);&quot;&gt;&lt;span style=&quot;background-color: rgb(255, 255, 255);&quot;&gt;dan konfirmasi&lt;/span&gt;&lt;br style=&quot;border-color: var(--border-color); background-color: rgb(255, 255, 255);&quot;&gt;&lt;span style=&quot;background-color: rgb(255, 255, 255);&quot;&gt;password.&lt;/span&gt;&lt;/font&gt;" style="shape=parallelogram;perimeter=parallelogramPerimeter;whiteSpace=wrap;html=1;fixedSize=1;" parent="1" vertex="1">
          <mxGeometry x="543" y="-27" width="120" height="60" as="geometry" />
        </mxCell>
        <mxCell id="Ds7gYtcJDSEKKV-xwVTr-26" style="edgeStyle=orthogonalEdgeStyle;rounded=0;orthogonalLoop=1;jettySize=auto;html=1;" parent="1" edge="1">
          <mxGeometry relative="1" as="geometry">
            <mxPoint x="412" y="194" as="targetPoint" />
            <mxPoint x="412.81481481481467" y="114" as="sourcePoint" />
          </mxGeometry>
        </mxCell>
        <mxCell id="Ds7gYtcJDSEKKV-xwVTr-14" value="login" style="shape=parallelogram;perimeter=parallelogramPerimeter;whiteSpace=wrap;html=1;fixedSize=1;" parent="1" vertex="1">
          <mxGeometry x="347.25" y="62" width="132.75" height="50" as="geometry" />
        </mxCell>
        <mxCell id="Ds7gYtcJDSEKKV-xwVTr-32" style="edgeStyle=orthogonalEdgeStyle;rounded=0;orthogonalLoop=1;jettySize=auto;html=1;" parent="1" edge="1">
          <mxGeometry relative="1" as="geometry">
            <mxPoint x="411" y="318" as="targetPoint" />
            <mxPoint x="411" y="258" as="sourcePoint" />
          </mxGeometry>
        </mxCell>
        <mxCell id="Ds7gYtcJDSEKKV-xwVTr-27" value="Input Password,&lt;br style=&quot;border-color: var(--border-color); background-color: rgb(255, 255, 255);&quot;&gt;&lt;span style=&quot;background-color: rgb(255, 255, 255);&quot;&gt;&amp;nbsp;Email&lt;/span&gt;" style="shape=parallelogram;perimeter=parallelogramPerimeter;whiteSpace=wrap;html=1;fixedSize=1;" parent="1" vertex="1">
          <mxGeometry x="345.5" y="197" width="135" height="60" as="geometry" />
        </mxCell>
        <mxCell id="Ds7gYtcJDSEKKV-xwVTr-29" value="Filter" style="rhombus;whiteSpace=wrap;html=1;" parent="1" vertex="1">
          <mxGeometry x="352" y="320" width="117" height="70" as="geometry" />
        </mxCell>
        <mxCell id="Ds7gYtcJDSEKKV-xwVTr-35" value="" style="endArrow=none;html=1;rounded=0;" parent="1" edge="1">
          <mxGeometry width="50" height="50" relative="1" as="geometry">
            <mxPoint x="160" y="440" as="sourcePoint" />
            <mxPoint x="630" y="440" as="targetPoint" />
            <Array as="points">
              <mxPoint x="450" y="440" />
            </Array>
          </mxGeometry>
        </mxCell>
        <mxCell id="Ds7gYtcJDSEKKV-xwVTr-36" value="" style="endArrow=classic;html=1;rounded=0;" parent="1" edge="1">
          <mxGeometry width="50" height="50" relative="1" as="geometry">
            <mxPoint x="159.47" y="440" as="sourcePoint" />
            <mxPoint x="159.47" y="500" as="targetPoint" />
          </mxGeometry>
        </mxCell>
        <mxCell id="Ds7gYtcJDSEKKV-xwVTr-37" value="" style="endArrow=classic;html=1;rounded=0;" parent="1" edge="1">
          <mxGeometry width="50" height="50" relative="1" as="geometry">
            <mxPoint x="410" y="390" as="sourcePoint" />
            <mxPoint x="410.22" y="500" as="targetPoint" />
          </mxGeometry>
        </mxCell>
        <mxCell id="Ds7gYtcJDSEKKV-xwVTr-38" value="" style="endArrow=classic;html=1;rounded=0;" parent="1" edge="1">
          <mxGeometry width="50" height="50" relative="1" as="geometry">
            <mxPoint x="630" y="440" as="sourcePoint" />
            <mxPoint x="630" y="500" as="targetPoint" />
          </mxGeometry>
        </mxCell>
        <mxCell id="Ds7gYtcJDSEKKV-xwVTr-44" style="edgeStyle=orthogonalEdgeStyle;rounded=0;orthogonalLoop=1;jettySize=auto;html=1;" parent="1" source="Ds7gYtcJDSEKKV-xwVTr-39" edge="1">
          <mxGeometry relative="1" as="geometry">
            <mxPoint x="155" y="610" as="targetPoint" />
          </mxGeometry>
        </mxCell>
        <mxCell id="Ds7gYtcJDSEKKV-xwVTr-39" value="Calender" style="shape=parallelogram;perimeter=parallelogramPerimeter;whiteSpace=wrap;html=1;fixedSize=1;" parent="1" vertex="1">
          <mxGeometry x="80" y="500" width="150" height="60" as="geometry" />
        </mxCell>
        <mxCell id="Ds7gYtcJDSEKKV-xwVTr-43" style="edgeStyle=orthogonalEdgeStyle;rounded=0;orthogonalLoop=1;jettySize=auto;html=1;" parent="1" source="Ds7gYtcJDSEKKV-xwVTr-40" edge="1">
          <mxGeometry relative="1" as="geometry">
            <mxPoint x="410" y="630" as="targetPoint" />
          </mxGeometry>
        </mxCell>
        <mxCell id="Ds7gYtcJDSEKKV-xwVTr-40" value="Home" style="shape=parallelogram;perimeter=parallelogramPerimeter;whiteSpace=wrap;html=1;fixedSize=1;" parent="1" vertex="1">
          <mxGeometry x="335" y="500" width="150" height="60" as="geometry" />
        </mxCell>
        <mxCell id="Ds7gYtcJDSEKKV-xwVTr-42" style="edgeStyle=orthogonalEdgeStyle;rounded=0;orthogonalLoop=1;jettySize=auto;html=1;" parent="1" edge="1">
          <mxGeometry relative="1" as="geometry">
            <mxPoint x="630.0000000000002" y="630" as="targetPoint" />
            <mxPoint x="630" y="560" as="sourcePoint" />
          </mxGeometry>
        </mxCell>
        <mxCell id="Ds7gYtcJDSEKKV-xwVTr-41" value="Statistik" style="shape=parallelogram;perimeter=parallelogramPerimeter;whiteSpace=wrap;html=1;fixedSize=1;" parent="1" vertex="1">
          <mxGeometry x="550" y="500" width="150" height="60" as="geometry" />
        </mxCell>
        <mxCell id="Ds7gYtcJDSEKKV-xwVTr-45" value="" style="endArrow=classic;html=1;rounded=0;" parent="1" edge="1">
          <mxGeometry width="50" height="50" relative="1" as="geometry">
            <mxPoint x="230" y="610" as="sourcePoint" />
            <mxPoint x="230" y="634" as="targetPoint" />
          </mxGeometry>
        </mxCell>
        <mxCell id="Ds7gYtcJDSEKKV-xwVTr-48" value="" style="endArrow=classic;html=1;rounded=0;" parent="1" edge="1">
          <mxGeometry width="50" height="50" relative="1" as="geometry">
            <mxPoint x="70" y="610" as="sourcePoint" />
            <mxPoint x="70" y="630" as="targetPoint" />
          </mxGeometry>
        </mxCell>
        <mxCell id="Ds7gYtcJDSEKKV-xwVTr-52" value="" style="endArrow=classic;html=1;rounded=0;" parent="1" edge="1">
          <mxGeometry width="50" height="50" relative="1" as="geometry">
            <mxPoint x="157" y="740" as="sourcePoint" />
            <mxPoint x="157" y="777" as="targetPoint" />
          </mxGeometry>
        </mxCell>
        <mxCell id="Ds7gYtcJDSEKKV-xwVTr-53" value="" style="endArrow=classic;html=1;rounded=0;" parent="1" edge="1">
          <mxGeometry width="50" height="50" relative="1" as="geometry">
            <mxPoint x="480" y="630" as="sourcePoint" />
            <mxPoint x="480.5" y="654" as="targetPoint" />
          </mxGeometry>
        </mxCell>
        <mxCell id="Ds7gYtcJDSEKKV-xwVTr-54" value="" style="endArrow=classic;html=1;rounded=0;" parent="1" edge="1">
          <mxGeometry width="50" height="50" relative="1" as="geometry">
            <mxPoint x="340.75" y="630" as="sourcePoint" />
            <mxPoint x="341.25" y="654" as="targetPoint" />
          </mxGeometry>
        </mxCell>
        <mxCell id="OsTSwVv5mtnL8p4USa2G-4" value="" style="endArrow=classic;html=1;rounded=0;entryX=0.489;entryY=0.079;entryDx=0;entryDy=0;entryPerimeter=0;" edge="1" parent="1">
          <mxGeometry width="50" height="50" relative="1" as="geometry">
            <mxPoint x="414" y="-190" as="sourcePoint" />
            <mxPoint x="413.6360000000001" y="-135.9960000000001" as="targetPoint" />
          </mxGeometry>
        </mxCell>
        <mxCell id="OsTSwVv5mtnL8p4USa2G-5" value="" style="endArrow=classic;html=1;rounded=0;entryX=0.489;entryY=0.079;entryDx=0;entryDy=0;entryPerimeter=0;exitX=0.434;exitY=1.032;exitDx=0;exitDy=0;exitPerimeter=0;" edge="1" parent="1" source="Ds7gYtcJDSEKKV-xwVTr-4">
          <mxGeometry width="50" height="50" relative="1" as="geometry">
            <mxPoint x="602" y="-70" as="sourcePoint" />
            <mxPoint x="602.4760000000001" y="-26.996000000000095" as="targetPoint" />
          </mxGeometry>
        </mxCell>
        <mxCell id="OsTSwVv5mtnL8p4USa2G-6" style="rounded=0;orthogonalLoop=1;jettySize=auto;html=1;entryX=0.5;entryY=0;entryDx=0;entryDy=0;" edge="1" parent="1" target="_7FOiPCJI2abmGHj1Tfg-47">
          <mxGeometry relative="1" as="geometry">
            <mxPoint x="405.29" y="910" as="targetPoint" />
            <mxPoint x="401" y="840" as="sourcePoint" />
          </mxGeometry>
        </mxCell>
        <mxCell id="OsTSwVv5mtnL8p4USa2G-8" style="rounded=0;orthogonalLoop=1;jettySize=auto;html=1;" edge="1" parent="1">
          <mxGeometry relative="1" as="geometry">
            <mxPoint x="631" y="840" as="targetPoint" />
            <mxPoint x="631.02" y="697" as="sourcePoint" />
          </mxGeometry>
        </mxCell>
        <mxCell id="OsTSwVv5mtnL8p4USa2G-10" value="" style="endArrow=classic;html=1;rounded=0;" edge="1" parent="1">
          <mxGeometry width="50" height="50" relative="1" as="geometry">
            <mxPoint x="340.64" y="693" as="sourcePoint" />
            <mxPoint x="340.64" y="730" as="targetPoint" />
          </mxGeometry>
        </mxCell>
        <mxCell id="OsTSwVv5mtnL8p4USa2G-11" value="" style="endArrow=classic;html=1;rounded=0;" edge="1" parent="1">
          <mxGeometry width="50" height="50" relative="1" as="geometry">
            <mxPoint x="340" y="761" as="sourcePoint" />
            <mxPoint x="340" y="840" as="targetPoint" />
          </mxGeometry>
        </mxCell>
        <mxCell id="OsTSwVv5mtnL8p4USa2G-12" value="" style="endArrow=classic;html=1;rounded=0;" edge="1" parent="1">
          <mxGeometry width="50" height="50" relative="1" as="geometry">
            <mxPoint x="435" y="761" as="sourcePoint" />
            <mxPoint x="435" y="840" as="targetPoint" />
          </mxGeometry>
        </mxCell>
        <mxCell id="OsTSwVv5mtnL8p4USa2G-13" value="" style="endArrow=classic;html=1;rounded=0;" edge="1" parent="1">
          <mxGeometry width="50" height="50" relative="1" as="geometry">
            <mxPoint x="515" y="761" as="sourcePoint" />
            <mxPoint x="515" y="840" as="targetPoint" />
          </mxGeometry>
        </mxCell>
        <mxCell id="OsTSwVv5mtnL8p4USa2G-14" value="" style="endArrow=classic;html=1;rounded=0;" edge="1" parent="1">
          <mxGeometry width="50" height="50" relative="1" as="geometry">
            <mxPoint x="160" y="807" as="sourcePoint" />
            <mxPoint x="160" y="844" as="targetPoint" />
          </mxGeometry>
        </mxCell>
        <mxCell id="OsTSwVv5mtnL8p4USa2G-15" style="edgeStyle=orthogonalEdgeStyle;rounded=0;orthogonalLoop=1;jettySize=auto;html=1;exitX=0.536;exitY=1.024;exitDx=0;exitDy=0;exitPerimeter=0;" edge="1" parent="1" source="NG-OHc6U-5O2aJ6f4-Iv-16">
          <mxGeometry relative="1" as="geometry">
            <mxPoint x="480" y="714" as="targetPoint" />
            <mxPoint x="480" y="700" as="sourcePoint" />
          </mxGeometry>
        </mxCell>
        <mxCell id="OsTSwVv5mtnL8p4USa2G-17" value="" style="endArrow=none;html=1;rounded=0;" edge="1" parent="1">
          <mxGeometry width="50" height="50" relative="1" as="geometry">
            <mxPoint x="440" y="714" as="sourcePoint" />
            <mxPoint x="520" y="714" as="targetPoint" />
          </mxGeometry>
        </mxCell>
        <mxCell id="OsTSwVv5mtnL8p4USa2G-18" style="edgeStyle=orthogonalEdgeStyle;rounded=0;orthogonalLoop=1;jettySize=auto;html=1;exitX=0.536;exitY=1.024;exitDx=0;exitDy=0;exitPerimeter=0;" edge="1" parent="1">
          <mxGeometry relative="1" as="geometry">
            <mxPoint x="520" y="731" as="targetPoint" />
            <mxPoint x="520" y="713" as="sourcePoint" />
          </mxGeometry>
        </mxCell>
        <mxCell id="OsTSwVv5mtnL8p4USa2G-19" style="edgeStyle=orthogonalEdgeStyle;rounded=0;orthogonalLoop=1;jettySize=auto;html=1;exitX=0.536;exitY=1.024;exitDx=0;exitDy=0;exitPerimeter=0;" edge="1" parent="1">
          <mxGeometry relative="1" as="geometry">
            <mxPoint x="440" y="731" as="targetPoint" />
            <mxPoint x="440" y="713" as="sourcePoint" />
          </mxGeometry>
        </mxCell>
      </root>
    </mxGraphModel>
  </diagram>
</mxfile>
